<svg width="21" height="21" viewBox="0 0 21 21" fill="none" xmlns="http://www.w3.org/2000/svg">
<path d="M7.00669 13.1258C6.5237 13.1258 6.12733 12.7347 6.12733 12.2508C6.12733 11.767 6.51495 11.3758 6.99794 11.3758H7.00669C7.48969 11.3758 7.88168 11.767 7.88168 12.2508C7.88168 12.7347 7.48969 13.1258 7.00669 13.1258Z" fill="#7FA088"/>
<path d="M9.62728 12.2508C9.62728 12.7347 10.0237 13.1258 10.5066 13.1258C10.9896 13.1258 11.3816 12.7347 11.3816 12.2508C11.3816 11.767 10.9896 11.3758 10.5066 11.3758H10.4979C10.0149 11.3758 9.62728 11.767 9.62728 12.2508Z" fill="#7FA088"/>
<path d="M14.0066 13.1258C13.5227 13.1258 13.1272 12.7347 13.1272 12.2508C13.1272 11.767 13.514 11.3758 13.9978 11.3758H14.0066C14.4905 11.3758 14.8816 11.767 14.8816 12.2508C14.8816 12.7347 14.4905 13.1258 14.0066 13.1258Z" fill="#7FA088"/>
<path d="M6.12733 15.7508C6.12733 16.2347 6.5237 16.6258 7.00669 16.6258C7.48969 16.6258 7.88168 16.2347 7.88168 15.7508C7.88168 15.2669 7.48969 14.8758 7.00669 14.8758H6.99794C6.51495 14.8758 6.12733 15.2669 6.12733 15.7508Z" fill="#7FA088"/>
<path d="M10.5066 16.6258C10.0237 16.6258 9.62728 16.2347 9.62728 15.7508C9.62728 15.2669 10.0149 14.8758 10.4979 14.8758H10.5066C10.9896 14.8758 11.3816 15.2669 11.3816 15.7508C11.3816 16.2347 10.9896 16.6258 10.5066 16.6258Z" fill="#7FA088"/>
<path d="M13.1272 15.7508C13.1272 16.2347 13.5227 16.6258 14.0066 16.6258C14.4905 16.6258 14.8816 16.2347 14.8816 15.7508C14.8816 15.2669 14.4905 14.8758 14.0066 14.8758H13.9978C13.514 14.8758 13.1272 15.2669 13.1272 15.7508Z" fill="#7FA088"/>
<path fill-rule="evenodd" clip-rule="evenodd" d="M19.2478 5.25093C19.2478 3.8037 18.07 2.62597 16.6228 2.62597H14.8728V1.75098C14.8728 1.26799 14.4817 0.875993 13.9978 0.875993C13.514 0.875993 13.1229 1.26799 13.1229 1.75098V2.62597H7.87293V1.75098C7.87293 1.26799 7.48093 0.875993 6.99794 0.875993C6.51495 0.875993 6.12295 1.26799 6.12295 1.75098V2.62597H4.37298C2.92575 2.62597 1.74801 3.8037 1.74801 5.25093V17.5008C1.74801 18.948 2.92575 20.1257 4.37298 20.1257H16.6228C18.07 20.1257 19.2478 18.948 19.2478 17.5008V5.25093ZM13.1229 5.25093C13.1229 5.73393 13.514 6.12592 13.9978 6.12592C14.4817 6.12592 14.8728 5.73393 14.8728 5.25093V4.37594H16.6228C17.1058 4.37594 17.4978 4.76881 17.4978 5.25093V7.8759H3.49799V5.25093C3.49799 4.76881 3.89086 4.37594 4.37298 4.37594H6.12295V5.25093C6.12295 5.73393 6.51495 6.12592 6.99794 6.12592C7.48093 6.12592 7.87293 5.73393 7.87293 5.25093V4.37594H13.1229V5.25093ZM3.49799 9.62587H17.4978V17.5008C17.4978 17.9838 17.1058 18.3757 16.6228 18.3757H4.37298C3.89086 18.3757 3.49799 17.9838 3.49799 17.5008V9.62587Z" fill="#7FA088"/>
</svg>
