<svg width="53" height="53" viewBox="0 0 53 53" fill="none" xmlns="http://www.w3.org/2000/svg">
<path fill-rule="evenodd" clip-rule="evenodd" d="M26.5034 35.3317C21.6318 35.3317 17.6702 31.37 17.6702 26.4985V11.0404C17.6702 6.16894 21.6318 2.20726 26.5034 2.20726C31.3749 2.20726 35.3365 6.16894 35.3365 11.0404V26.4985C35.3365 31.37 31.3749 35.3317 26.5034 35.3317ZM26.5034 6.62385C24.0676 6.62385 22.0868 8.6047 22.0868 11.0404V26.4985C22.0868 28.9343 24.0676 30.9151 26.5034 30.9151C28.9391 30.9151 30.92 28.9343 30.92 26.4985V11.0404C30.92 8.6047 28.9391 6.62385 26.5034 6.62385Z" fill="white"/>
<path d="M24.2951 44.0276C15.5925 42.9375 8.83697 35.4916 8.83697 26.4985V22.0819C8.83697 20.863 9.82629 19.8736 11.0453 19.8736C12.2642 19.8736 13.2536 20.863 13.2536 22.0819V26.4985C13.2536 33.8058 19.1961 39.7483 26.5034 39.7483C33.8106 39.7483 39.7531 33.8058 39.7531 26.4985V22.0819C39.7531 20.863 40.7403 19.8736 41.9614 19.8736C43.1826 19.8736 44.1697 20.863 44.1697 22.0819V26.4985C44.1697 35.4916 37.4142 42.9375 28.7117 44.0276V48.5815C28.7117 49.8027 27.7223 50.7898 26.5034 50.7898C25.2844 50.7898 24.2951 49.8027 24.2951 48.5815V44.0276Z" fill="white"/>
</svg>
