<svg width="21" height="21" viewBox="0 0 21 21" fill="none" xmlns="http://www.w3.org/2000/svg">
<path d="M17.4809 20.0607C17.4126 20.0607 17.3365 20.0572 17.2604 20.0502C14.4342 19.7431 11.6902 18.7666 9.31461 17.2258C7.11227 15.8267 5.20392 13.9192 3.80219 11.7116C2.26046 9.33164 1.28485 6.57543 0.984728 3.74834C0.919979 3.03698 1.1326 2.35624 1.58147 1.81724C2.03121 1.27913 2.66295 0.947506 3.36119 0.884507C3.43994 0.877507 3.51782 0.874007 3.59569 0.874007H6.22065C6.2294 0.874007 6.23815 0.874007 6.24603 0.874007C7.54014 0.874007 8.65487 1.83999 8.83687 3.13235C8.94012 3.91371 9.12999 4.67583 9.40298 5.40732C9.76173 6.36193 9.52986 7.44866 8.81149 8.1749L8.18063 8.8049C9.20961 10.4184 10.5798 11.7886 12.1924 12.8176L12.8207 12.1893C13.5496 11.4684 14.6363 11.2356 15.5935 11.5961C16.3241 11.8682 17.0871 12.0572 17.858 12.1596C19.1836 12.3477 20.1513 13.487 20.1242 14.8134V17.4279C20.1277 18.1253 19.8565 18.7859 19.363 19.2837C18.8695 19.7816 18.2106 20.0572 17.5097 20.0599C17.5001 20.0607 17.4896 20.0607 17.4809 20.0607ZM6.23728 2.62398C6.23465 2.62398 6.23203 2.62398 6.2294 2.62398H3.59569C3.28595 2.64848 3.07507 2.75873 2.92545 2.9381C2.77583 3.11748 2.70495 3.34497 2.72595 3.57772C2.99545 6.11956 3.87744 8.60977 5.27479 10.7675C6.5444 12.7651 8.26638 14.4879 10.2596 15.754C12.4129 17.1514 14.8927 18.0325 17.4362 18.309C17.7451 18.3423 17.956 18.218 18.1205 18.0518C18.285 17.8864 18.3751 17.6668 18.3742 17.4331V14.8038C18.3742 14.7959 18.3742 14.7889 18.3742 14.7819C18.3856 14.3383 18.0627 13.9568 17.6217 13.8938C16.7284 13.7766 15.8376 13.5543 14.9802 13.2358C14.6573 13.1133 14.2959 13.1903 14.0544 13.431L12.9458 14.5396C12.6667 14.8178 12.2353 14.8756 11.895 14.6813C9.56836 13.3583 7.63988 11.4299 6.3169 9.10327C6.12178 8.76027 6.18041 8.33065 6.45865 8.05153L7.56989 6.9403C7.80613 6.70143 7.88313 6.33918 7.76326 6.02068C7.44389 5.16407 7.22164 4.27246 7.10264 3.36947C7.04314 2.94598 6.67127 2.62398 6.23728 2.62398Z" fill="#C76B49"/>
</svg>
