<svg width="21" height="21" viewBox="0 0 21 21" fill="none" xmlns="http://www.w3.org/2000/svg">
<path d="M6.09325 20.1123C6.07487 20.1123 6.05737 20.1123 6.039 20.1123C4.64864 20.0974 3.34666 19.5435 2.37368 18.5504C1.40069 17.5573 0.872196 16.2439 0.886196 14.8536C0.900196 13.4624 1.45494 12.1604 2.44892 11.1874L11.1927 2.44364C11.1944 2.44189 11.2583 2.37714 11.2609 2.37539C12.2418 1.41465 13.5333 0.887911 14.9035 0.887911C14.9219 0.887911 14.9402 0.887911 14.9586 0.887911C16.349 0.901911 17.651 1.45665 18.6231 2.45064C19.5969 3.44375 20.1254 4.75623 20.1114 6.14746C20.0966 7.53782 19.5427 8.8398 18.5496 9.81279L9.80582 18.5565L9.18545 17.9379L9.79007 18.5705C9.7822 18.5793 9.7297 18.63 9.72182 18.6379C8.75584 19.5855 7.46435 20.1123 6.09325 20.1123ZM14.9026 2.63876C13.9926 2.63876 13.1352 2.98876 12.4842 3.62662L3.67916 12.4316C3.01329 13.0835 2.64492 13.948 2.63617 14.8711C2.62655 15.7951 2.97742 16.6666 3.62403 17.3254C4.26977 17.9852 5.13426 18.3535 6.05737 18.3632C6.96561 18.3562 7.85197 18.021 8.51084 17.3753L9.18545 17.9379L8.56684 17.3193L17.3167 8.56943C17.9826 7.91669 18.351 7.05308 18.3597 6.12909C18.3693 5.20598 18.0176 4.33449 17.3718 3.67562C16.7261 3.01588 15.8607 2.64751 14.9385 2.63789C14.9271 2.63876 14.9149 2.63876 14.9026 2.63876Z" fill="#D4A24D"/>
<path d="M13.5604 14.438C13.3364 14.438 13.1124 14.3522 12.9418 14.1816L6.81686 8.05669C6.47474 7.71457 6.47474 7.16157 6.81686 6.81945C7.15898 6.47733 7.71198 6.47733 8.0541 6.81945L14.179 12.9444C14.5211 13.2865 14.5211 13.8395 14.179 14.1816C14.0084 14.3522 13.7844 14.438 13.5604 14.438Z" fill="#D4A24D"/>
</svg>
