<svg width="208" height="23" viewBox="0 0 208 23" fill="none" xmlns="http://www.w3.org/2000/svg">
<path d="M51.9706 11.1378C51.9706 4.98658 56.9572 0 63.1084 0H135.239C141.39 0 146.377 4.98658 146.377 11.1378C146.377 17.2891 141.391 22.2757 135.239 22.2757H63.1084C56.9572 22.2757 51.9706 17.2891 51.9706 11.1378Z" fill="black"/>
<path d="M3.31037 7.40197C3.68044 7.40197 4.03523 7.47157 4.37474 7.61077C4.71765 7.74657 5.02491 7.96386 5.29652 8.26263C5.56813 8.55801 5.78203 8.94336 5.9382 9.41868C6.09438 9.894 6.17247 10.4695 6.17247 11.1451V11.1553C6.17247 11.9837 6.05703 12.6933 5.82616 13.284C5.59529 13.8714 5.26257 14.3229 4.82799 14.6387C4.39681 14.951 3.87736 15.1072 3.26963 15.1072C2.83505 15.1072 2.44291 15.0274 2.09321 14.8679C1.74691 14.7083 1.45832 14.4876 1.22746 14.2058C0.996587 13.924 0.840411 13.5998 0.758927 13.2331L0.743649 13.172H1.87932L1.89969 13.2229C1.96759 13.4097 2.06605 13.5709 2.19507 13.7067C2.32408 13.8425 2.47856 13.9495 2.6585 14.0276C2.83845 14.1023 3.04385 14.1396 3.27472 14.1396C3.68553 14.1396 4.01995 14.0191 4.27798 13.778C4.53941 13.5336 4.73463 13.2093 4.86364 12.8053C4.99266 12.4013 5.06565 11.9565 5.08263 11.471C5.08602 11.4201 5.08772 11.3709 5.08772 11.3233C5.08772 11.2758 5.08772 11.23 5.08772 11.1858L4.86364 9.9585C4.86364 9.65973 4.79404 9.38982 4.65484 9.14876C4.51904 8.90771 4.334 8.71588 4.09974 8.57329C3.86887 8.43069 3.60914 8.3594 3.32056 8.3594C3.03536 8.3594 2.77564 8.429 2.54137 8.5682C2.3105 8.7074 2.12547 8.89583 1.98627 9.13349C1.84707 9.36775 1.77747 9.63257 1.77747 9.92795V9.93813C1.77747 10.2369 1.84367 10.5034 1.97608 10.7377C2.10849 10.9719 2.29013 11.157 2.521 11.2928C2.75187 11.4252 3.0133 11.4914 3.30528 11.4914C3.60065 11.4914 3.86547 11.4252 4.09974 11.2928C4.334 11.1604 4.51904 10.9804 4.65484 10.753C4.79404 10.5221 4.86364 10.259 4.86364 9.9636V9.9585H5.16411V11.2979H4.98587C4.89759 11.4948 4.76518 11.6781 4.58864 11.8479C4.41209 12.0177 4.1948 12.1552 3.93677 12.2604C3.68214 12.3623 3.38846 12.4132 3.05573 12.4132C2.5906 12.4132 2.1764 12.3079 1.81312 12.0974C1.44984 11.8835 1.16465 11.5933 0.957543 11.2266C0.75044 10.8565 0.646888 10.4372 0.646888 9.96869V9.9585C0.646888 9.46621 0.760625 9.02824 0.988099 8.64459C1.21897 8.25754 1.53472 7.95368 1.93534 7.73299C2.33936 7.51231 2.7977 7.40197 3.31037 7.40197Z" fill="white"/>
<path d="M8.23012 13.9206C8.01962 13.9206 7.84138 13.8476 7.69539 13.7016C7.55279 13.5556 7.48149 13.3808 7.48149 13.1771C7.48149 12.9666 7.55279 12.79 7.69539 12.6474C7.84138 12.5049 8.01962 12.4336 8.23012 12.4336C8.44401 12.4336 8.62226 12.5049 8.76485 12.6474C8.90745 12.79 8.97875 12.9666 8.97875 13.1771C8.97875 13.3808 8.90745 13.5556 8.76485 13.7016C8.62226 13.8476 8.44401 13.9206 8.23012 13.9206ZM8.23012 10.0705C8.01962 10.0705 7.84138 9.99755 7.69539 9.85156C7.55279 9.70557 7.48149 9.53072 7.48149 9.32701C7.48149 9.11651 7.55279 8.93996 7.69539 8.79737C7.84138 8.65477 8.01962 8.58347 8.23012 8.58347C8.44401 8.58347 8.62226 8.65477 8.76485 8.79737C8.90745 8.93996 8.97875 9.11651 8.97875 9.32701C8.97875 9.53072 8.90745 9.70557 8.76485 9.85156C8.62226 9.99755 8.44401 10.0705 8.23012 10.0705Z" fill="white"/>
<path d="M13.8323 14.929V13.4725H10.247V12.4998C10.4406 12.167 10.6375 11.8326 10.8378 11.4965C11.0415 11.1604 11.2452 10.8243 11.4489 10.4881C11.656 10.152 11.8631 9.821 12.0702 9.49507C12.2773 9.16574 12.4844 8.8415 12.6915 8.52236C12.8986 8.19982 13.1023 7.88577 13.3027 7.58021H14.9374V12.4998H15.9509V13.4725H14.9374V14.929H13.8323ZM11.3471 12.5201H13.8476V8.54783H13.7814C13.6218 8.78548 13.4605 9.03163 13.2976 9.28627C13.1346 9.53751 12.9682 9.79554 12.7985 10.0604C12.6321 10.3252 12.4658 10.5917 12.2994 10.8599C12.133 11.1281 11.9701 11.3963 11.8105 11.6646C11.6509 11.9294 11.4964 12.1908 11.3471 12.4488V12.5201Z" fill="white"/>
<path d="M18.8182 14.929V8.75663H18.7368L16.8881 10.0756V8.95524L18.8233 7.58021H19.9641V14.929H18.8182Z" fill="white"/>
<path d="M197.296 9.54552C197.882 9.54552 198.356 10.0203 198.356 10.606V13.7885C198.356 14.3743 197.882 14.849 197.296 14.849H195.175C194.589 14.849 194.114 14.3743 194.114 13.7885V10.606C194.115 10.0203 194.589 9.54552 195.175 9.54552H197.296Z" fill="white"/>
<path fill-rule="evenodd" clip-rule="evenodd" d="M204.935 8.486C205.989 8.48619 206.844 9.34192 206.844 10.3963V14.0032L206.835 14.1982C206.743 15.0966 206.029 15.8115 205.13 15.9027L204.935 15.9125H194.964L194.769 15.9027C193.871 15.8115 193.156 15.0966 193.065 14.1982L193.055 14.0032V10.3963C193.055 9.34181 193.91 8.48602 194.964 8.486H204.935ZM194.964 9.12308C194.261 9.12311 193.691 9.69331 193.691 10.3963V14.0032C193.691 14.7058 194.262 15.2754 194.964 15.2754H204.935C205.638 15.2752 206.208 14.7057 206.208 14.0032V10.3963C206.208 9.69342 205.638 9.12328 204.935 9.12308H194.964Z" fill="white"/>
<path d="M207.363 10.164C207.714 10.164 207.999 10.4487 207.999 10.8001V13.567C207.999 13.9185 207.714 14.2031 207.363 14.2031H207.151V10.164H207.363Z" fill="white"/>
<path d="M180.325 10.6083C180.618 10.6083 180.856 10.8457 180.856 11.1387V15.3816C180.856 15.6746 180.618 15.912 180.325 15.912H178.204C177.911 15.912 177.673 15.6746 177.673 15.3816V11.1387C177.673 10.8457 177.911 10.6083 178.204 10.6083L180.325 10.6083Z" fill="white"/>
<path d="M176.614 13.2602C176.907 13.2602 177.144 13.4976 177.144 13.7905V15.3817C177.144 15.6746 176.907 15.912 176.614 15.912L174.492 15.912C174.199 15.912 173.962 15.6746 173.962 15.3817L173.962 13.7905C173.962 13.4976 174.199 13.2602 174.492 13.2602H176.614Z" fill="white"/>
<path d="M184.036 8.486C184.329 8.486 184.567 8.72345 184.567 9.01637L184.567 15.3809C184.567 15.6738 184.329 15.9112 184.036 15.9112H181.915C181.622 15.9112 181.384 15.6738 181.384 15.3809V9.01637C181.384 8.72345 181.622 8.486 181.915 8.486L184.036 8.486Z" fill="white"/>
</svg>
